<?xml version="1.0" encoding="utf-8"?>
<!-- Generator: Adobe Illustrator 18.0.0, SVG Export Plug-In . SVG Version: 6.00 Build 0)  -->
<!DOCTYPE svg PUBLIC "-//W3C//DTD SVG 1.1//EN" "http://www.w3.org/Graphics/SVG/1.1/DTD/svg11.dtd">
<svg version="1.1" id="Layer_1" xmlns="http://www.w3.org/2000/svg" xmlns:xlink="http://www.w3.org/1999/xlink" x="0px" y="0px"
	 viewBox="0 0 109 89" enable-background="new 0 0 109 89" xml:space="preserve">
<title>CHC_Inactive_Mobile</title>
<desc>Created with Sketch.</desc>
<g id="Symbols">
	<g id="CHC_Inactive_Mobile">
		<g id="Group_1_">
			<g id="Group-3-Copy" transform="translate(31.000000, 0.000000)">
				<g id="Community-Center-Black" transform="translate(12.000000, 12.000000)">
					<g id="noun_987928_cc">
						<g id="Group">
							<g id="Shape">
								<path d="M24.3,8.7c0,0,0-0.1-0.1-0.1v0c0,0,0,0,0,0L22,4.6c-0.1-0.1-0.3-0.2-0.5-0.2h-3.2V0.5c0-0.3-0.2-0.5-0.5-0.5H6.4
									C6.1,0,5.9,0.2,5.9,0.5v3.8H2.7c-0.2,0-0.4,0.1-0.5,0.2L0.1,8.5c0,0,0,0,0,0v0C0,8.6,0,8.7,0,8.7l0,0l0,0l0,0v14.7
									c0,0.3,0.2,0.5,0.5,0.5h23.3c0.3,0,0.5-0.2,0.5-0.5V8.7L24.3,8.7z M5.9,22.9H1V9.2h4.9V22.9z M5.9,8.2H1.4L3,5.3h2.9V8.2z
									 M14.7,22.9H9.6v-7.5h5.1V22.9z M17.4,22.9h-1.7v-8c0-0.3-0.2-0.5-0.5-0.5H9.1c-0.3,0-0.5,0.2-0.5,0.5v8H6.9V1h10.4
									L17.4,22.9z M18.4,5.3h2.9l1.7,2.9h-4.6V5.3z M23.3,22.9h-4.9V9.2h4.9V22.9z"/>
							</g>
							<g id="Shape_1_">
								<path d="M10.1,5.3h1.6v1.5c0,0.3,0.2,0.5,0.5,0.5s0.5-0.2,0.5-0.5V5.3h1.6c0.3,0,0.5-0.2,0.5-0.5s-0.2-0.5-0.5-0.5h-1.6V2.8
									c0-0.3-0.2-0.5-0.5-0.5s-0.5,0.2-0.5,0.5v1.5h-1.6c-0.3,0-0.5,0.2-0.5,0.5S9.8,5.3,10.1,5.3z"/>
							</g>
							<g id="Shape_2_">
								<path d="M20.1,12h1.5c0.3,0,0.5-0.2,0.5-0.5S21.9,11,21.6,11h-1.5c-0.3,0-0.5,0.2-0.5,0.5S19.8,12,20.1,12z"/>
							</g>
							<g id="Shape_3_">
								<path d="M20.1,15h1.5c0.3,0,0.5-0.2,0.5-0.5c0-0.3-0.2-0.5-0.5-0.5h-1.5c-0.3,0-0.5,0.2-0.5,0.5C19.6,14.8,19.8,15,20.1,15z
									"/>
							</g>
							<g id="Shape_4_">
								<path d="M20.1,18h1.5c0.3,0,0.5-0.2,0.5-0.5c0-0.3-0.2-0.5-0.5-0.5h-1.5c-0.3,0-0.5,0.2-0.5,0.5C19.6,17.8,19.8,18,20.1,18z
									"/>
							</g>
							<g id="Shape_5_">
								<path d="M21.6,20.1h-1.5c-0.3,0-0.5,0.2-0.5,0.5s0.2,0.5,0.5,0.5h1.5c0.3,0,0.5-0.2,0.5-0.5S21.8,20.1,21.6,20.1z"/>
							</g>
							<g id="Shape_6_">
								<path d="M2.7,12h1.5c0.3,0,0.5-0.2,0.5-0.5S4.5,11,4.2,11H2.7c-0.3,0-0.5,0.2-0.5,0.5S2.5,12,2.7,12z"/>
							</g>
							<g id="Shape_7_">
								<path d="M2.7,15h1.5c0.3,0,0.5-0.2,0.5-0.5c0-0.3-0.2-0.5-0.5-0.5H2.7c-0.3,0-0.5,0.2-0.5,0.5C2.2,14.8,2.5,15,2.7,15z"/>
							</g>
							<g id="Shape_8_">
								<path d="M2.7,18h1.5c0.3,0,0.5-0.2,0.5-0.5c0-0.3-0.2-0.5-0.5-0.5H2.7c-0.3,0-0.5,0.2-0.5,0.5C2.2,17.8,2.5,18,2.7,18z"/>
							</g>
							<g id="Shape_9_">
								<path d="M2.7,21.1h1.5c0.3,0,0.5-0.2,0.5-0.5s-0.2-0.5-0.5-0.5H2.7c-0.3,0-0.5,0.2-0.5,0.5S2.5,21.1,2.7,21.1z"/>
							</g>
							<g id="Shape_10_">
								<path d="M8.8,10.5h6.7c0.3,0,0.5-0.2,0.5-0.5c0-0.3-0.2-0.5-0.5-0.5H8.8c-0.3,0-0.5,0.2-0.5,0.5C8.3,10.3,8.5,10.5,8.8,10.5
									z"/>
							</g>
							<g id="Shape_11_">
								<path d="M8.8,13.2h6.7c0.3,0,0.5-0.2,0.5-0.5c0-0.3-0.2-0.5-0.5-0.5H8.8c-0.3,0-0.5,0.2-0.5,0.5C8.3,13,8.5,13.2,8.8,13.2z"
									/>
							</g>
						</g>
					</g>
				</g>
				<g id="Oval-2">
					<path d="M24,48.5c-13.5,0-24.5-11-24.5-24.5S10.5-0.5,24-0.5c13.5,0,24.5,11,24.5,24.5S37.5,48.5,24,48.5z M24,0.5
						C11,0.5,0.5,11,0.5,24S11,47.5,24,47.5S47.5,37,47.5,24S37,0.5,24,0.5z"/>
				</g>
			</g>
			<g enable-background="new    ">
				<g>
					<path d="M18.1,65.1c0-2.9,1.9-5.1,5.1-5.1c2.6,0,4.3,1.5,4.7,3.4h-1.4c-0.4-1.4-1.5-2.3-3.3-2.3c-2.4,0-3.8,1.7-3.8,4
						c0,2.3,1.4,4,3.8,4c1.8,0,2.9-0.9,3.3-2.3h1.4c-0.4,2-2,3.4-4.7,3.4C20,70.2,18.1,68,18.1,65.1z"/>
				</g>
				<g>
					<path d="M28.9,66.8c0-1.9,1.3-3.4,3.4-3.4c2.1,0,3.4,1.5,3.4,3.4c0,1.9-1.3,3.4-3.4,3.4C30.2,70.2,28.9,68.7,28.9,66.8z
						 M34.4,66.8c0-1.3-0.8-2.3-2.1-2.3s-2.2,1-2.2,2.3c0,1.3,0.8,2.3,2.2,2.3S34.4,68.1,34.4,66.8z"/>
				</g>
				<g>
					<path d="M37.2,63.5h1.2v1.2c0.2-0.7,0.9-1.3,1.9-1.3c1.1,0,1.8,0.5,2.1,1.4c0.3-0.8,1.1-1.4,2.1-1.4c1.7,0,2.3,1.1,2.3,2.5V70
						h-1.2v-3.9c0-1.2-0.5-1.7-1.4-1.7c-1,0-1.6,0.6-1.6,2.2V70h-1.2v-3.8c0-1.4-0.6-1.8-1.4-1.8c-1,0-1.6,0.7-1.6,2.2V70h-1.2V63.5
						z"/>
				</g>
				<g>
					<path d="M48.8,63.5h1.2v1.2c0.2-0.7,0.9-1.3,1.9-1.3c1.1,0,1.8,0.5,2.1,1.4c0.3-0.8,1.1-1.4,2.1-1.4c1.7,0,2.3,1.1,2.3,2.5V70
						h-1.2v-3.9c0-1.2-0.5-1.7-1.4-1.7c-1,0-1.6,0.6-1.6,2.2V70H53v-3.8c0-1.4-0.6-1.8-1.4-1.8c-1,0-1.6,0.7-1.6,2.2V70h-1.2V63.5z"
						/>
				</g>
				<g>
					<path d="M60.4,67.5v-4h1.2v3.7c0,1.1,0.4,1.9,1.6,1.9c1.3,0,1.8-1,1.8-2v-3.5h1.2V70H65v-1.2c-0.3,0.8-1.1,1.3-2.2,1.3
						C61.4,70.2,60.4,69.3,60.4,67.5z"/>
				</g>
				<g>
					<path d="M68.4,63.5h1.2v1.2c0.4-0.8,1.1-1.4,2.3-1.4c1.6,0,2.4,0.9,2.4,2.6v4H73v-3.4c0-1.4-0.5-2.1-1.6-2.1
						c-1.2,0-1.8,0.9-1.8,2.2V70h-1.2V63.5z"/>
				</g>
				<g>
					<path d="M75.9,61.5c0-0.5,0.4-1,1-1c0.6,0,1,0.4,1,1c0,0.5-0.4,1-1,1C76.3,62.4,75.9,62,75.9,61.5z M76.2,63.5h1.2V70h-1.2
						V63.5z"/>
				</g>
				<g>
					<path d="M83.1,68.9V70c-0.2,0.1-0.7,0.1-1.1,0.1c-0.8,0-2-0.1-2-2.2v-3.3h-1.2v-1H80v-2h1.2v2h1.6v1h-1.6v3
						c0,1.2,0.4,1.4,1,1.4C82.5,69,82.9,68.9,83.1,68.9z"/>
				</g>
				<g>
					<path d="M90.4,63.5v6.6c0,1-0.3,1.8-0.9,2.3c-0.5,0.4-1.2,0.7-2.1,0.7c-0.9,0-1.7-0.2-2.2-0.7c-0.5-0.4-0.7-1-0.7-1.7h1.2
						c0.1,0.8,0.5,1.3,1.7,1.3c1.1,0,1.8-0.6,1.8-2.1v-1.2c-0.4,0.8-1.1,1.3-2.2,1.3c-1.7,0-2.5-1.1-2.5-2.8v-3.9h1.2v3.6
						c0,1.1,0.4,1.9,1.7,1.9c1.2,0,1.8-1,1.8-2.2v-3.3H90.4z"/>
				</g>
			</g>
			<g enable-background="new    ">
				<g>
					<path d="M11.6,77.2h1.3v4.4h4.6v-4.4h1.3V87h-1.3v-4.3h-4.6V87h-1.3V77.2z"/>
				</g>
				<g>
					<path d="M26.6,84.1h-5c0,1.2,0.8,2,2,2c0.9,0,1.4-0.3,1.7-1h1.2c-0.2,1.2-1.4,2-2.9,2c-2,0-3.2-1.3-3.2-3.4
						c0-2,1.3-3.4,3.2-3.4c1.8,0,3.1,1.3,3.1,3C26.6,83.7,26.6,83.8,26.6,84.1z M25.4,83.2c0-1.1-0.7-1.8-1.9-1.8
						c-1.2,0-1.9,0.7-2,1.8H25.4z"/>
				</g>
				<g>
					<path d="M27.8,83.8c0-1.9,1.2-3.4,3.2-3.4c1,0,1.9,0.5,2.3,1.3v-1.1h1.2V87h-1.2v-1.1c-0.4,0.8-1.3,1.3-2.3,1.3
						C28.9,87.2,27.8,85.7,27.8,83.8z M33.3,83.8c0-1.2-0.8-2.3-2.2-2.3c-1.3,0-2.2,1-2.2,2.3c0,1.3,0.8,2.3,2.2,2.3
						C32.6,86.1,33.3,85,33.3,83.8z"/>
				</g>
				<g>
					<path d="M36.6,77.2h1.2V87h-1.2V77.2z"/>
				</g>
				<g>
					<path d="M43.4,85.9V87c-0.2,0.1-0.7,0.1-1.1,0.1c-0.8,0-2-0.1-2-2.2v-3.3h-1.2v-1h1.2v-2h1.2v2h1.6v1h-1.6v3
						c0,1.2,0.4,1.4,1,1.4C42.8,86,43.2,85.9,43.4,85.9z"/>
				</g>
				<g>
					<path d="M50.8,83v4h-1.2v-3.4c0-1.4-0.5-2.1-1.6-2.1c-1.2,0-1.8,0.9-1.8,2.2V87h-1.2v-9.8h1.2v4.5c0.4-0.8,1.1-1.4,2.3-1.4
						C50,80.4,50.8,81.3,50.8,83z"/>
				</g>
				<g>
					<path d="M55.8,82.1c0-2.9,1.9-5.1,5.1-5.1c2.6,0,4.3,1.5,4.7,3.4h-1.4c-0.4-1.4-1.5-2.3-3.3-2.3c-2.4,0-3.8,1.7-3.8,4
						c0,2.3,1.4,4,3.8,4c1.8,0,2.9-0.9,3.3-2.3h1.4c-0.4,2-2,3.4-4.7,3.4C57.7,87.2,55.8,85,55.8,82.1z"/>
				</g>
				<g>
					<path d="M72.8,84.1h-5c0,1.2,0.8,2,2,2c0.9,0,1.4-0.3,1.7-1h1.2c-0.2,1.2-1.4,2-2.9,2c-2,0-3.2-1.3-3.2-3.4
						c0-2,1.3-3.4,3.2-3.4c1.8,0,3.1,1.3,3.1,3C72.8,83.7,72.8,83.8,72.8,84.1z M71.7,83.2c0-1.1-0.7-1.8-1.9-1.8s-1.9,0.7-2,1.8
						H71.7z"/>
				</g>
				<g>
					<path d="M74.4,80.5h1.2v1.2c0.4-0.8,1.1-1.4,2.3-1.4c1.6,0,2.4,0.9,2.4,2.6v4h-1.2v-3.4c0-1.4-0.5-2.1-1.6-2.1
						c-1.2,0-1.8,0.9-1.8,2.2V87h-1.2V80.5z"/>
				</g>
				<g>
					<path d="M85.7,85.9V87c-0.2,0.1-0.7,0.1-1.1,0.1c-0.8,0-2-0.1-2-2.2v-3.3h-1.2v-1h1.2v-2h1.2v2h1.6v1h-1.6v3
						c0,1.2,0.4,1.4,1,1.4C85.1,86,85.5,85.9,85.7,85.9z"/>
				</g>
				<g>
					<path d="M92.7,84.1h-5c0,1.2,0.8,2,2,2c0.9,0,1.4-0.3,1.7-1h1.2c-0.2,1.2-1.4,2-2.9,2c-2,0-3.2-1.3-3.2-3.4
						c0-2,1.3-3.4,3.2-3.4c1.8,0,3.1,1.3,3.1,3C92.8,83.7,92.8,83.8,92.7,84.1z M91.6,83.2c0-1.1-0.7-1.8-1.9-1.8s-1.9,0.7-2,1.8
						H91.6z"/>
				</g>
				<g>
					<path d="M94.3,80.5h1.2V82c0.3-1.1,1.1-1.6,1.9-1.6c0.2,0,0.4,0,0.6,0.1v1.1c-0.2,0-0.4,0-0.6,0c-1.3,0-1.9,1.2-1.9,2.6V87
						h-1.2V80.5z"/>
				</g>
			</g>
		</g>
	</g>
</g>
</svg>
