<?xml version="1.0" encoding="utf-8"?>
<!-- Generator: Adobe Illustrator 22.1.0, SVG Export Plug-In . SVG Version: 6.00 Build 0)  -->
<!DOCTYPE svg PUBLIC "-//W3C//DTD SVG 1.1//EN" "http://www.w3.org/Graphics/SVG/1.1/DTD/svg11.dtd">
<svg version="1.1" id="Layer_1" xmlns="http://www.w3.org/2000/svg" xmlns:xlink="http://www.w3.org/1999/xlink" x="0px" y="0px"
	 viewBox="0 0 109 89" style="enable-background:new 0 0 109 89;" xml:space="preserve">
<title>CHC_Inactive_Mobile</title>
<desc>Created with Sketch.</desc>
<g id="Symbols">
	<g id="CHC_Inactive_Mobile">
		<g id="Group_1_">
			<g id="Group-3-Copy" transform="translate(31.000000, 0.000000)">
				<g id="Community-Center-Black" transform="translate(12.000000, 12.000000)">
					<g id="noun_987928_cc">
						<g id="Group">
							<g id="Shape">
								<path d="M23.8,29.2c0,0,0-0.1-0.1-0.1l0,0l0,0l-2.2-4c-0.1-0.1-0.3-0.2-0.5-0.2h-3.2V21c0-0.3-0.2-0.5-0.5-0.5H5.9
									c-0.3,0-0.5,0.2-0.5,0.5v3.8H2.2c-0.2,0-0.4,0.1-0.5,0.2l-2.1,4l0,0l0,0c-0.1,0.1-0.1,0.2-0.1,0.2l0,0l0,0l0,0v14.7
									c0,0.3,0.2,0.5,0.5,0.5h23.3c0.3,0,0.5-0.2,0.5-0.5V29.2L23.8,29.2z M5.4,43.4H0.5V29.7h4.9V43.4z M5.4,28.7H0.9l1.6-2.9
									h2.9V28.7z M14.2,43.4H9.1v-7.5h5.1C14.2,35.9,14.2,43.4,14.2,43.4z M16.9,43.4h-1.7v-8c0-0.3-0.2-0.5-0.5-0.5H8.6
									c-0.3,0-0.5,0.2-0.5,0.5v8H6.4V21.5h10.4L16.9,43.4z M17.9,25.8h2.9l1.7,2.9h-4.6V25.8z M22.8,43.4h-4.9V29.7h4.9V43.4z"/>
							</g>
							<g id="Shape_1_">
								<path d="M9.6,25.8h1.6v1.5c0,0.3,0.2,0.5,0.5,0.5s0.5-0.2,0.5-0.5v-1.5h1.6c0.3,0,0.5-0.2,0.5-0.5c0-0.3-0.2-0.5-0.5-0.5
									h-1.6v-1.5c0-0.3-0.2-0.5-0.5-0.5s-0.5,0.2-0.5,0.5v1.5H9.6c-0.3,0-0.5,0.2-0.5,0.5C9.1,25.6,9.3,25.8,9.6,25.8z"/>
							</g>
							<g id="Shape_2_">
								<path d="M19.6,32.5h1.5c0.3,0,0.5-0.2,0.5-0.5s-0.2-0.5-0.5-0.5h-1.5c-0.3,0-0.5,0.2-0.5,0.5S19.3,32.5,19.6,32.5z"/>
							</g>
							<g id="Shape_3_">
								<path d="M19.6,35.5h1.5c0.3,0,0.5-0.2,0.5-0.5s-0.2-0.5-0.5-0.5h-1.5c-0.3,0-0.5,0.2-0.5,0.5S19.3,35.5,19.6,35.5z"/>
							</g>
							<g id="Shape_4_">
								<path d="M19.6,38.5h1.5c0.3,0,0.5-0.2,0.5-0.5s-0.2-0.5-0.5-0.5h-1.5c-0.3,0-0.5,0.2-0.5,0.5S19.3,38.5,19.6,38.5z"/>
							</g>
							<g id="Shape_5_">
								<path d="M21.1,40.6h-1.5c-0.3,0-0.5,0.2-0.5,0.5c0,0.3,0.2,0.5,0.5,0.5h1.5c0.3,0,0.5-0.2,0.5-0.5
									C21.6,40.8,21.3,40.6,21.1,40.6z"/>
							</g>
							<g id="Shape_6_">
								<path d="M2.2,32.5h1.5c0.3,0,0.5-0.2,0.5-0.5S4,31.5,3.7,31.5H2.2c-0.3,0-0.5,0.2-0.5,0.5S2,32.5,2.2,32.5z"/>
							</g>
							<g id="Shape_7_">
								<path d="M2.2,35.5h1.5c0.3,0,0.5-0.2,0.5-0.5S4,34.5,3.7,34.5H2.2c-0.3,0-0.5,0.2-0.5,0.5S2,35.5,2.2,35.5z"/>
							</g>
							<g id="Shape_8_">
								<path d="M2.2,38.5h1.5c0.3,0,0.5-0.2,0.5-0.5S4,37.5,3.7,37.5H2.2c-0.3,0-0.5,0.2-0.5,0.5S2,38.5,2.2,38.5z"/>
							</g>
							<g id="Shape_9_">
								<path d="M2.2,41.6h1.5c0.3,0,0.5-0.2,0.5-0.5c0-0.3-0.2-0.5-0.5-0.5H2.2c-0.3,0-0.5,0.2-0.5,0.5C1.7,41.4,2,41.6,2.2,41.6z"
									/>
							</g>
							<g id="Shape_10_">
								<path d="M8.3,31H15c0.3,0,0.5-0.2,0.5-0.5S15.3,30,15,30H8.3c-0.3,0-0.5,0.2-0.5,0.5S8,31,8.3,31z"/>
							</g>
							<g id="Shape_11_">
								<path d="M8.3,33.7H15c0.3,0,0.5-0.2,0.5-0.5s-0.2-0.5-0.5-0.5H8.3c-0.3,0-0.5,0.2-0.5,0.5S8,33.7,8.3,33.7z"/>
							</g>
						</g>
					</g>
				</g>
				<g id="Oval-2">
					<path d="M23.5,69C10,69-1,58-1,44.5S10,20,23.5,20S48,31,48,44.5S37,69,23.5,69z M23.5,21C10.5,21,0,31.5,0,44.5
						S10.5,68,23.5,68S47,57.5,47,44.5S36.5,21,23.5,21z"/>
				</g>
			</g>
		</g>
	</g>
</g>
</svg>
