<?xml version="1.0" encoding="UTF-8" standalone="no"?>
<svg width="40px" height="40px" viewBox="0 0 40 40" version="1.1" xmlns="http://www.w3.org/2000/svg" xmlns:xlink="http://www.w3.org/1999/xlink">
    <!-- Generator: Sketch 46.2 (44496) - http://www.bohemiancoding.com/sketch -->
    <title>Facebook_White_Mobile</title>
    <desc>Created with Sketch.</desc>
    <defs></defs>
    <g id="Symbols" stroke="none" stroke-width="1" fill="none" fill-rule="evenodd">
        <g id="Facebook_White_Mobile">
            <g id="Group">
                <path d="M25.4965845,9.00351156 L22.1939316,9.00504787 C22.1939316,9.00504787 22.1270198,9 22.0066665,9 C21.329017,9 17.9020603,9.18828016 16.9696853,12.8629667 C16.9550904,12.9037338 16.6414364,13.8235439 16.636416,15.9626896 L13.503443,15.9626896 C13.2255631,15.9626896 13,16.1882253 13,16.4661326 L13,19.3529121 C13,19.6308195 13.2255631,19.8563551 13.503443,19.8563551 L16.9299059,19.8563551 L16.9299059,30.224356 C16.9299059,30.5022633 17.1554416,30.7278264 17.4333489,30.7278264 L21.3567255,30.7278264 C21.6346054,30.7278264 21.8601959,30.5022633 21.8601959,30.224356 L21.8601959,19.8668898 L25.2977147,19.8668898 C25.5756495,19.8668898 25.8011852,19.6413541 25.8011852,19.3634468 L25.8011852,16.4661326 C25.8011852,16.1882253 25.5756495,15.9626896 25.2977147,15.9626896 L21.8671916,15.9626896 L21.8671916,14.7236838 C21.8671916,13.8985213 22.3907986,13.0170091 23.8608817,13.0170091 L25.4965845,13.0170091 C25.7744643,13.0170091 26,12.7914735 26,12.5135662 L26,9.50695454 C26,9.22907465 25.7749582,9.00351156 25.4965845,9.00351156" id="Page-1" fill="#FFFFFF"></path>
                <circle id="Oval-2-Copy-3" stroke="#FFFFFF" cx="20" cy="20" r="20"></circle>
            </g>
        </g>
    </g>
</svg>