<svg xmlns="http://www.w3.org/2000/svg" xmlns:xlink="http://www.w3.org/1999/xlink" width="100" height="100" viewBox="0 0 100 100"><g><g transform="translate(50 50) scale(0.69 0.69) rotate(0) translate(-50 -50)" style="fill:#000000"><svg fill="#000000" xmlns="http://www.w3.org/2000/svg" xmlns:xlink="http://www.w3.org/1999/xlink" version="1.1" x="0px" y="0px" viewBox="0 0 48 48" enable-background="new 0 0 48 48" xml:space="preserve"><g><path d="M48,17.5c0-0.1,0-0.2-0.1-0.3c0,0,0-0.1,0-0.1c0,0,0,0,0-0.1l-4.4-7.8c-0.2-0.3-0.5-0.5-0.9-0.5h-6.3V1c0-0.6-0.4-1-1-1   H12.7c-0.6,0-1,0.4-1,1v7.7H5.4c-0.4,0-0.7,0.2-0.9,0.5L0.1,17c0,0,0,0,0,0.1c0,0,0,0.1,0,0.1C0,17.3,0,17.4,0,17.5c0,0,0,0,0,0v0   c0,0,0,0,0,0V47c0,0.6,0.4,1,1,1h46c0.6,0,1-0.4,1-1L48,17.5C48,17.5,48,17.5,48,17.5z M11.7,46H2V18.5h9.7V46z M11.7,16.5h-9   L6,10.7h5.7V16.5z M29,46H19V31h10V46z M34.3,46H31V30c0-0.6-0.4-1-1-1H18c-0.6,0-1,0.4-1,1v16h-3.3V2h20.5L34.3,46z M36.3,10.7H42   l3.3,5.8h-9V10.7z M46,46h-9.7V18.5H46V46z"></path><path d="M19.9,10.7H23v3.1c0,0.6,0.4,1,1,1c0.6,0,1-0.4,1-1v-3.1h3.1c0.6,0,1-0.4,1-1s-0.4-1-1-1H25V5.6c0-0.6-0.4-1-1-1   c-0.6,0-1,0.4-1,1v3.1h-3.1c-0.6,0-1,0.4-1,1S19.3,10.7,19.9,10.7z"></path><path d="M39.7,24.1h2.9c0.6,0,1-0.4,1-1s-0.4-1-1-1h-2.9c-0.6,0-1,0.4-1,1S39.1,24.1,39.7,24.1z"></path><path d="M39.7,30.2h2.9c0.6,0,1-0.4,1-1s-0.4-1-1-1h-2.9c-0.6,0-1,0.4-1,1S39.1,30.2,39.7,30.2z"></path><path d="M39.7,36.3h2.9c0.6,0,1-0.4,1-1s-0.4-1-1-1h-2.9c-0.6,0-1,0.4-1,1S39.1,36.3,39.7,36.3z"></path><path d="M42.6,40.4h-2.9c-0.6,0-1,0.4-1,1s0.4,1,1,1h2.9c0.6,0,1-0.4,1-1S43.1,40.4,42.6,40.4z"></path><path d="M5.4,24.1h2.9c0.6,0,1-0.4,1-1s-0.4-1-1-1H5.4c-0.6,0-1,0.4-1,1S4.9,24.1,5.4,24.1z"></path><path d="M5.4,30.2h2.9c0.6,0,1-0.4,1-1s-0.4-1-1-1H5.4c-0.6,0-1,0.4-1,1S4.9,30.2,5.4,30.2z"></path><path d="M5.4,36.3h2.9c0.6,0,1-0.4,1-1s-0.4-1-1-1H5.4c-0.6,0-1,0.4-1,1S4.9,36.3,5.4,36.3z"></path><path d="M5.4,42.4h2.9c0.6,0,1-0.4,1-1s-0.4-1-1-1H5.4c-0.6,0-1,0.4-1,1S4.9,42.4,5.4,42.4z"></path><path d="M17.4,21.2h13.2c0.6,0,1-0.4,1-1s-0.4-1-1-1H17.4c-0.6,0-1,0.4-1,1S16.8,21.2,17.4,21.2z"></path><path d="M17.4,26.6h13.2c0.6,0,1-0.4,1-1s-0.4-1-1-1H17.4c-0.6,0-1,0.4-1,1S16.8,26.6,17.4,26.6z"></path></g></svg></g></g></svg>