<?xml version="1.0" encoding="utf-8"?>
<!-- Generator: Adobe Illustrator 22.1.0, SVG Export Plug-In . SVG Version: 6.00 Build 0)  -->
<!DOCTYPE svg PUBLIC "-//W3C//DTD SVG 1.1//EN" "http://www.w3.org/Graphics/SVG/1.1/DTD/svg11.dtd">
<svg version="1.1" id="Layer_1" xmlns="http://www.w3.org/2000/svg" xmlns:xlink="http://www.w3.org/1999/xlink" x="0px" y="0px"
	 viewBox="0 0 50.5 50.5" style="enable-background:new 0 0 50.5 50.5;" xml:space="preserve">
<title>CHC_Inactive_Mobile</title>
<desc>Created with Sketch.</desc>
<g id="Symbols_2_">
	<g id="CHC_Inactive_Mobile_2_">
		<g id="Group_1_">
			<g id="Group-3-Copy_2_" transform="translate(31.000000, 0.000000)">
				<g id="Community-Center-Black_2_" transform="translate(12.000000, 12.000000)">
					<g id="noun_987928_cc_2_">
						<g id="Group_4_">
							<g id="Shape_37_">
								<path d="M-5.2,9.8C-5.2,9.8-5.2,9.8-5.2,9.8L-5.2,9.8L-5.2,9.8l-2.3-4.2c-0.1-0.1-0.3-0.2-0.5-0.2h-3.3v-4
									c0-0.3-0.2-0.5-0.5-0.5h-11.6c-0.3,0-0.5,0.2-0.5,0.5v3.9h-3.4c-0.2,0-0.4,0.1-0.5,0.2l-2.1,4.1l0,0l0,0
									C-30,9.8-30,9.9-30,9.9l0,0l0,0l0,0v15c0,0.3,0.2,0.5,0.5,0.5h23.8c0.3,0,0.5-0.2,0.5-0.5L-5.2,9.8L-5.2,9.8z M-24,24.3h-5
									v-14h5V24.3z M-24,9.3h-4.6l1.6-3h3V9.3z M-14.9,24.3h-5.2v-7.6h5.2V24.3z M-12.2,24.3h-1.7v-8.2c0-0.3-0.2-0.5-0.5-0.5
									h-6.2c-0.3,0-0.5,0.2-0.5,0.5v8.2h-1.7V2h10.6V24.3z M-11.2,6.5h3l1.7,3h-4.7V6.5z M-6.2,24.3h-5v-14h5V24.3z"/>
							</g>
							<g id="Shape_24_">
								<path d="M-19.6,6.5h1.6V8c0,0.3,0.2,0.5,0.5,0.5S-17,8.2-17,8V6.5h1.6c0.3,0,0.5-0.2,0.5-0.5s-0.2-0.5-0.5-0.5H-17V4
									c0-0.3-0.2-0.5-0.5-0.5S-18,3.7-18,4v1.5h-1.6c-0.3,0-0.5,0.2-0.5,0.5S-20,6.5-19.6,6.5z"/>
							</g>
							<g id="Shape_11_">
								<path d="M-9.4,13.2h1.5c0.3,0,0.5-0.2,0.5-0.5s-0.2-0.5-0.5-0.5h-1.5c-0.3,0-0.5,0.2-0.5,0.5S-9.8,13.2-9.4,13.2z"/>
							</g>
							<g id="Shape_10_">
								<path d="M-9.4,16.3h1.5c0.3,0,0.5-0.2,0.5-0.5s-0.2-0.5-0.5-0.5h-1.5c-0.3,0-0.5,0.2-0.5,0.5S-9.8,16.3-9.4,16.3z"/>
							</g>
							<g id="Shape_9_">
								<path d="M-9.4,19.3h1.5c0.3,0,0.5-0.2,0.5-0.5s-0.2-0.5-0.5-0.5h-1.5c-0.3,0-0.5,0.2-0.5,0.5S-9.8,19.3-9.4,19.3z"/>
							</g>
							<g id="Shape_8_">
								<path d="M-7.9,21.5h-1.5c-0.3,0-0.5,0.2-0.5,0.5s0.2,0.5,0.5,0.5h1.5c0.3,0,0.5-0.2,0.5-0.5S-7.8,21.5-7.9,21.5z"/>
							</g>
							<g id="Shape_7_">
								<path d="M-27.2,13.2h1.5c0.3,0,0.5-0.2,0.5-0.5s-0.2-0.5-0.5-0.5h-1.5c-0.3,0-0.5,0.2-0.5,0.5S-27.5,13.2-27.2,13.2z"/>
							</g>
							<g id="Shape_6_">
								<path d="M-27.2,16.3h1.5c0.3,0,0.5-0.2,0.5-0.5s-0.2-0.5-0.5-0.5h-1.5c-0.3,0-0.5,0.2-0.5,0.5S-27.5,16.3-27.2,16.3z"/>
							</g>
							<g id="Shape_5_">
								<path d="M-27.2,19.3h1.5c0.3,0,0.5-0.2,0.5-0.5s-0.2-0.5-0.5-0.5h-1.5c-0.3,0-0.5,0.2-0.5,0.5S-27.5,19.3-27.2,19.3z"/>
							</g>
							<g id="Shape_4_">
								<path d="M-27.2,22.5h1.5c0.3,0,0.5-0.2,0.5-0.5s-0.2-0.5-0.5-0.5h-1.5c-0.3,0-0.5,0.2-0.5,0.5S-27.5,22.5-27.2,22.5z"/>
							</g>
							<g id="Shape_3_">
								<path d="M-21,11.8h6.8c0.3,0,0.5-0.2,0.5-0.5s-0.2-0.5-0.5-0.5H-21c-0.3,0-0.5,0.2-0.5,0.5S-21.4,11.8-21,11.8z"/>
							</g>
							<g id="Shape_1_">
								<path d="M-21,14.5h6.8c0.3,0,0.5-0.2,0.5-0.5s-0.2-0.5-0.5-0.5H-21c-0.3,0-0.5,0.2-0.5,0.5S-21.4,14.5-21,14.5z"/>
							</g>
						</g>
					</g>
				</g>
				<g id="Oval-2_2_">
					<path d="M-5.8,50.2c-13.8,0-25-11.2-25-25s11.2-25,25-25s25,11.2,25,25S8.1,50.2-5.8,50.2z M-5.8,1.2c-13.3,0-24,10.7-24,24
						s10.7,24,24,24s24-10.7,24-24S7.6,1.2-5.8,1.2z"/>
				</g>
			</g>
		</g>
	</g>
</g>
</svg>
