<?xml version="1.0" encoding="UTF-8" standalone="no"?>
<svg width="40px" height="40px" viewBox="0 0 40 40" version="1.1" xmlns="http://www.w3.org/2000/svg" xmlns:xlink="http://www.w3.org/1999/xlink">
    <!-- Generator: Sketch 46.2 (44496) - http://www.bohemiancoding.com/sketch -->
    <title>Instagram_White_Mobile</title>
    <desc>Created with Sketch.</desc>
    <defs>
        <polygon id="path-1" points="23 11.5 23 0 0 0 0 11.5 0 23 23 23"></polygon>
    </defs>
    <g id="Symbols" stroke="none" stroke-width="1" fill="none" fill-rule="evenodd">
        <g id="Instagram_White_Mobile">
            <g id="Group">
                <circle id="Oval-2-Copy-2" stroke="#FFFFFF" cx="20" cy="20" r="20"></circle>
                <g id="Page-1" transform="translate(9.000000, 9.000000)">
                    <mask id="mask-2" fill="white">
                        <use xlink:href="#path-1"></use>
                    </mask>
                    <g id="Clip-2"></g>
                    <path d="M11.5,7.8409005 C9.47294451,7.8409005 7.84090909,9.47295933 7.84090909,11.5000126 C7.84090909,13.5270407 9.47294451,15.1590995 11.5,15.1590995 C13.5270555,15.1590995 15.1590909,13.5270407 15.1590909,11.5000126 C15.1590909,9.47295933 13.5270555,7.8409005 11.5,7.8409005 L11.5,7.8409005 Z M11.5,6.7954471 C14.0920577,6.7954471 16.2045455,8.90793251 16.2045455,11.5000126 C16.2045455,14.0920423 14.0920577,16.2045529 11.5,16.2045529 C8.90794227,16.2045529 6.79545455,14.0920423 6.79545455,11.5000126 C6.79545455,8.90795772 8.90794227,6.7954471 11.5,6.7954471 L11.5,6.7954471 Z M16.7272727,4.7045403 C17.3046524,4.7045403 17.7727273,5.17258942 17.7727273,5.7499937 C17.7727273,6.32737276 17.3046524,6.7954471 16.7272727,6.7954471 C16.1498678,6.7954471 15.6818182,6.32737276 15.6818182,5.7499937 C15.6818182,5.17258942 16.1498678,4.7045403 16.7272727,4.7045403 L16.7272727,4.7045403 Z M7.31818182,3.1363602 C4.99242863,3.1363602 3.13636364,4.99242315 3.13636364,7.3181738 L3.13636364,15.6818262 C3.13636364,18.0075516 4.99242863,19.8636398 7.31818182,19.8636398 L15.6818182,19.8636398 C18.0075714,19.8636398 19.8636364,18.0076021 19.8636364,15.6818262 L19.8636364,7.31819901 C19.8636364,4.99244836 18.0075714,3.13638541 15.6818182,3.13638541 L7.31818182,3.13638541 L7.31818182,3.1363602 Z M7.31818182,2.0909068 L15.6818182,2.0909068 C18.5686663,2.0909068 20.9090909,4.43132888 20.9090909,7.3181738 L20.9090909,15.6818262 C20.9090909,18.5686711 18.5686663,20.9090932 15.6818182,20.9090932 L7.31818182,20.9090932 C4.43133374,20.9090932 2.09090909,18.5686711 2.09090909,15.6818262 L2.09090909,7.31819901 C2.09090909,4.43135409 4.43133374,2.09093201 7.31818182,2.09093201 L7.31818182,2.0909068 Z M6.01136364,0 C2.68106959,0 0,2.68106665 0,6.01135705 L0,16.988643 C0,20.3189333 2.68106959,23 6.01136364,23 L16.9886364,23 C20.3189304,23 23,20.3189333 23,16.988643 L23,6.01138226 C23,2.68109186 20.3189304,2.52086564e-05 16.9886364,2.52086564e-05 L6.01136364,2.52086564e-05 L6.01136364,0 Z" id="Fill-1" fill="#FFFFFF" mask="url(#mask-2)"></path>
                </g>
            </g>
        </g>
    </g>
</svg>