<svg xmlns="http://www.w3.org/2000/svg" xmlns:xlink="http://www.w3.org/1999/xlink" width="100" height="100" viewBox="0 0 100 100"><g><g transform="translate(50 50) scale(0.69 0.69) rotate(0) translate(-50 -50)" style="fill:#000000"><svg fill="#000000" xmlns="http://www.w3.org/2000/svg" xmlns:xlink="http://www.w3.org/1999/xlink" version="1.1" x="0px" y="0px" viewBox="0 0 100 100" style="enable-background:new 0 0 100 100;" xml:space="preserve"><path d="M89.98338,68.6992c-5.29591-4.27541-9.42091-6.2661-12.98238-6.2661c-4.336,0-7.19632,2.9077-10.22462,5.9858  c-0.3409,0.3467-0.6875,0.6993-1.043,1.0547c-0.4248,0.4248-0.9609,0.6226-1.6836,0.6226c-2.5684,0-8.0869-2.459-19.79778-14.1724  c-5.17782-5.1743-8.98252-9.6089-11.30772-13.1806c-1.48628-2.2842-3.7265-6.3702-2.0224-8.0747l0.9219-0.9156  c5.5097-5.4482,10.2695-10.1528-0.3575-23.3305c-3.73828-4.7115-7.3662-7.002-11.0937-7.002  c-4.9385,0-8.72658,4.0025-12.0674,7.5337c-0.6016,0.6362-1.1895,1.2563-1.7637,1.8315c-1.8896,1.8863-2.8847,4.9581-2.8769,8.8833  c0.0185,10.1158,6.9951,28.8174,26.5888,48.2305c19.7657,19.7642,38.4434,26.7769,48.4317,26.7769  c3.8222-0.0005,6.8242-0.9825,8.6797-2.8399c0.5468-0.5464,1.1347-1.1054,1.7363-1.6797c3.5176-3.3501,7.8945-7.519,7.6797-12.7705  C96.65228,75.7769,94.42288,72.2813,89.98338,68.6992z M87.165,90.1025c-0.62012,0.5909-1.22362,1.1661-1.78512,1.7281  c-1.31451,1.3139-3.6221,2.0088-6.6748,2.0088c-9.4473,0-27.2735-6.795-46.4297-25.9507  C13.29488,49.084,6.53908,31.2344,6.52148,21.6636c-0.0059-3.1538,0.7002-5.5293,2.0449-6.8716  c0.5928-0.5928,1.1982-1.2324,1.8193-1.8882c2.94832-3.1152,6.2891-6.6465,10.0069-6.6465c2.8047,0,5.706,1.939,8.8789,5.9365  c9.0244,11.191,5.8447,14.3345,0.5781,19.5416L28.915,32.6631c-2.37792,2.3784-1.82322,6.2905,1.65238,11.6274  c2.43262,3.7373,6.3623,8.3262,11.6787,13.6392c10.0937,10.0952,17.2256,15.0029,21.8027,15.0034c0.001,0,0.001,0,0.001,0  c1.4834,0,2.72359-0.4888,3.6895-1.4536c0.3603-0.3604,0.7138-0.7188,1.0595-1.0713C71.623,67.5376,73.85348,65.27,77.001,65.27  c2.83878,0,6.50288,1.8438,11.20018,5.6367c3.71482,2.9966,5.6533,5.8887,5.7646,8.5957  C94.12888,83.4702,90.42868,86.9937,87.165,90.1025z"></path></svg></g></g></svg>