<?xml version="1.0" encoding="utf-8"?>
<!-- Generator: Adobe Illustrator 18.0.0, SVG Export Plug-In . SVG Version: 6.00 Build 0)  -->
<!DOCTYPE svg PUBLIC "-//W3C//DTD SVG 1.1//EN" "http://www.w3.org/Graphics/SVG/1.1/DTD/svg11.dtd">
<svg version="1.1" id="Layer_1" xmlns="http://www.w3.org/2000/svg" xmlns:xlink="http://www.w3.org/1999/xlink" x="0px" y="0px"
	 viewBox="-11 -10 239 236" enable-background="new -11 -10 239 236" xml:space="preserve">
<title>Twitter_White_Mobile</title>
<desc>Created with Sketch.</desc>
<g>
	<path fill="#FFFFFF" d="M-2.7,108C-2.7,47,47.5-3.8,109.6-2.7c60.5,0.5,110.2,50.2,109.1,112.3c-0.5,60.5-50.2,110.2-112.3,109.6
		C45.9,218.2-2.7,168.5-2.7,108z M108,2.7C50.2,2.7,3.2,49.1,2.7,106.4c-0.5,59.4,46.4,106.4,104.2,106.9
		c58.9,0.5,105.8-46.4,106.4-104.2C213.8,50.2,166.3,2.7,108,2.7z"/>
	<path fill="#FFFFFF" d="M103.1,88.6c0-5.4,1.6-10.3,4.9-14.6c8.1-10.8,23.8-12.4,34.6-3.8c0.5,0.5,1.1,0.5,1.6,0.5
		c4.3,0,8.6-0.5,13-0.5c1.1,0,2.2,0,2.7,0.5c1.6,1.1,2.2,2.7,1.6,4.3c-2.2,5.4-4.9,10.8-8.6,15.1c0,0-0.5,0.5-0.5,1.1
		c1.1,10.8-1.6,20.5-7,29.7c-5.9,9.7-13,18.4-22.7,24.8c-7.6,4.9-16.2,8.1-24.8,8.6c-13.5,1.1-25.9-2.2-37.8-7.6
		c-1.6-0.5-2.7-1.6-4.3-2.2c-1.6-1.1-2.7-2.7-2.2-4.9c0.5-1.6,2.2-2.7,4.3-2.7c4.9,0.5,9.2,0.5,14-1.1c2.7-1.1,5.9-2.2,8.6-3.8
		c-0.5-0.5-0.5-0.5-1.1-1.1c-7-5.4-12.4-11.9-16.7-19.4c-6.5-11.9-7-24.3-2.7-37.3c0.5-1.1,1.1-2.7,1.6-3.8c1.1-2.7,4.9-3.2,7-0.5
		c5.4,7.6,13,12.4,21.6,15.7c2.7,1.1,5.4,1.6,8.1,2.2C99.9,88.6,101.5,88.6,103.1,88.6z"/>
</g>
</svg>
