<?xml version="1.0" encoding="UTF-8" standalone="no"?>
<svg width="38px" height="38px" viewBox="0 0 38 38" version="1.1" xmlns="http://www.w3.org/2000/svg" xmlns:xlink="http://www.w3.org/1999/xlink">
    <!-- Generator: Sketch 46.2 (44496) - http://www.bohemiancoding.com/sketch -->
    <title>Emergency_Mobile</title>
    <desc>Created with Sketch.</desc>
    <defs></defs>
    <g id="Symbols" stroke="none" stroke-width="1" fill="none" fill-rule="evenodd">
        <g id="Emergency_Mobile">
            <g id="Group-7">
                <circle id="Oval-2" fill="#F5430C" cx="19" cy="19" r="19"></circle>
                <g id="Helpline-Logo" transform="translate(9.000000, 10.000000)" fill="#FFFFFF">
                    <path d="M10.7078507,5.70570571 L10.7078507,4.29429429 L13.1831832,4.29429429 L13.1831832,1.81896182 L14.5945946,1.81896182 L14.5945946,4.29429429 L17.0699271,4.29429429 L17.0699271,5.70570571 L14.5945946,5.70570571 L14.5945946,8.18103818 L13.1831832,8.18103818 L13.1831832,5.70570571 C13.1831832,5.70570571 10.7078507,5.70570571 10.7078507,5.70570571 L10.7078507,5.70570571 Z M15.3024453,8.88888889 L15.3024453,6.41355641 L17.7777778,6.41355641 L17.7777778,3.58644359 L15.3024453,3.58644359 L15.3024453,1.11111111 L12.4753325,1.11111111 L12.4753325,3.58644359 L10,3.58644359 L10,6.41355641 L12.4753325,6.41355641 L12.4753325,8.88888889 L15.3024453,8.88888889 Z" id="Fill-1"></path>
                    <path d="M19.1473043,16.6175557 L18.3622829,17.4078465 L14.9469885,13.9892746 L15.7365215,13.1989839 C15.8808933,13.0544736 16.1154974,13.0544736 16.2598692,13.1989839 L19.1518159,16.0937059 C19.2916761,16.2382162 19.2916761,16.4730454 19.1473043,16.6175557 L19.1473043,16.6175557 Z M13.89127,19.2593847 C12.2039251,19.2593847 10.6158358,18.6000564 9.42476878,17.4078465 L2.59418001,10.5661868 C1.40311302,9.37397686 0.744416873,7.78436353 0.744416873,6.09539938 C0.744416873,4.65932825 1.22264832,3.29551228 2.10241372,2.18458933 L5.48612678,5.57154953 C4.75975637,6.29861699 4.75975637,7.47727914 5.48612678,8.19983065 L11.7933679,14.5131245 C12.5197383,15.2401919 13.6972705,15.2401919 14.4191293,14.5131245 L17.8028423,17.9000847 C16.6929844,18.7761784 15.330476,19.2593847 13.89127,19.2593847 L13.89127,19.2593847 Z M3.38371306,0.834321197 C3.61380555,0.631103585 3.8348748,0.762066046 3.9115723,0.834321197 L6.80351906,3.72904318 C7.01105346,3.95484053 6.87570494,4.18515382 6.80351906,4.25289303 L6.01398601,5.04318374 L2.59418001,1.62461191 L3.38371306,0.834321197 Z M16.7832168,12.6706181 C16.3501015,12.2370872 15.6417776,12.2370872 15.2086623,12.6706181 L13.8957816,13.9847587 C13.4626664,14.4182896 12.7543424,14.4182896 12.3212272,13.9847587 L6.0094744,7.67598081 C5.57635912,7.2424499 5.57635912,6.53344623 6.0094744,6.09991533 L7.32235506,4.78577477 C7.53440108,4.57352526 7.93142342,3.88258538 7.32235506,3.20970929 L4.4304083,0.314987299 C4.01082788,-0.104995766 3.27543424,-0.104995766 2.85585382,0.314987299 L2.06632078,1.10076207 C0.735393639,2.43296641 0,4.20773356 0,6.09539938 C0,7.9830652 0.735393639,9.75783235 2.06632078,11.0945526 L8.89690954,17.9316963 C10.2729529,19.3090601 12.0821114,20 13.89127,20 C15.7004286,20 17.5095872,19.3090601 18.8856305,17.9316963 L19.6751635,17.1414056 C20.1082788,16.7078747 20.1082788,15.998871 19.6751635,15.5653401 L16.7832168,12.6706181 Z" id="Fill-3"></path>
                </g>
            </g>
        </g>
    </g>
</svg>