<svg xmlns="http://www.w3.org/2000/svg" xmlns:xlink="http://www.w3.org/1999/xlink" width="100" height="100" viewBox="0 0 100 100"><g><g transform="translate(50 50) scale(0.69 0.69) rotate(0) translate(-50 -50)" style="fill:#000000"><svg fill="#000000" xmlns="http://www.w3.org/2000/svg" xmlns:xlink="http://www.w3.org/1999/xlink" version="1.1" x="0px" y="0px" viewBox="0 0 100 100" style="enable-background:new 0 0 100 100;" xml:space="preserve"><path d="M47,93.9c0.1,0.2,0.2,0.3,0.3,0.4c0.4,0.5,0.9,0.7,1.5,0.7c0.6,0,1.2-0.1,1.7-0.7c0.1-0.1,0.3-0.3,0.3-0.5  c6.7-10,13.3-20,19.8-30.1c4.1-6.4,8.9-12.7,10.2-20.3c1.6-9.1-0.6-18.5-6.2-25.8C63.5,3,41.9,0.8,27.9,12.6  c-6.7,5.6-10.8,13.8-11.4,22.5c-0.7,9.2,2.8,16.2,7.5,23.7C31.4,70.6,39.2,82.3,47,93.9z M24.5,22.7c9.6-16,32.5-18.3,45.2-4.7  c6.3,6.8,8.9,16.5,7,25.5c-1.4,6.7-6.1,12.7-9.8,18.4C61,71.2,55,80.3,48.9,89.4c-5.2-7.6-10.3-15.3-15.3-23  c-3.4-5.2-6.9-10.5-9.9-15.9C18.9,42,19.5,31,24.5,22.7z"></path><path d="M48.9,52.2c7.6,0,13.8-6.2,13.8-13.8c0-7.6-6.2-13.8-13.8-13.8s-13.8,6.2-13.8,13.8C35.1,46.1,41.3,52.2,48.9,52.2z   M48.9,28.8c5.3,0,9.7,4.3,9.7,9.7c0,5.3-4.3,9.7-9.7,9.7c-5.3,0-9.7-4.3-9.7-9.7C39.2,33.1,43.5,28.8,48.9,28.8z"></path></svg></g></g></svg>