<?xml version="1.0" encoding="utf-8"?>
<!-- Generator: Adobe Illustrator 22.1.0, SVG Export Plug-In . SVG Version: 6.00 Build 0)  -->
<!DOCTYPE svg PUBLIC "-//W3C//DTD SVG 1.1//EN" "http://www.w3.org/Graphics/SVG/1.1/DTD/svg11.dtd">
<svg version="1.1" id="Layer_1" xmlns="http://www.w3.org/2000/svg" xmlns:xlink="http://www.w3.org/1999/xlink" x="0px" y="0px"
	 viewBox="0.2 0.2 50 50" style="enable-background:new 0.2 0.2 50 50;" xml:space="preserve">
<title>Pregnancy Resource Center</title>
<desc>Pregnancy Resource Center</desc>
<g id="Symbols_4_">
	<g id="PC_Active_Mobile_2_">
		<g id="Group-3_2_" transform="translate(31.000000, 0.000000)">
			<g id="Oval-2_4_">
				<path d="M-5.8,50.2c-13.8,0-25-11.2-25-25s11.2-25,25-25s25,11.2,25,25S8,50.2-5.8,50.2z M-5.8,1.3c-13.3,0-24,10.7-24,24
					s10.7,24,24,24s24-10.7,24-24S7.5,1.3-5.8,1.3z"/>
			</g>
			<g id="Pregnant-Woman_2_" transform="translate(16.000000, 9.000000)">
				<g id="noun_1090720_cc_2_" transform="translate(0.924528, 0.320755)">
					<g id="Shape_2_">
						<path d="M-27.6,8.5h-1.5c0.2-1.6,1.4-3,3.1-3.2c0.1,2.2,1.8,4.1,4.1,4.1c2.1,0,4-1.7,4.1-4c0-2.3-1.6-4.3-3.8-4.5
							s-4.1,1.4-4.4,3.7c-2.1,0.1-3.8,1.9-3.8,4.2v0.3h2.2C-27.6,9.1-27.6,8.5-27.6,8.5z M-18.8,4.7c-1.5-0.2-2.8-1.5-2.9-3.1
							C-20.1,1.9-18.9,3.2-18.8,4.7z M-22.4,1.7c-0.3,1.5-1.5,2.8-3,3C-25.2,3.1-24,1.9-22.4,1.7z M-22,2.8c0.5,1.4,1.8,2.6,3.4,2.7
							c-0.2,1.8-1.6,3.3-3.5,3.2s-3.3-1.4-3.4-3.3C-24,5.2-22.6,4.2-22,2.8z M-17.2,16.7L-17.2,16.7c1.4-1.4,1.4-3.8,0-5.2l-0.4,0.5
							c1,1.1,1.1,2.9,0.2,4L-20,10c-1.1,1.2-3.1,1.2-4.2,0l-2.4,6c-0.9-1.2-0.9-3,0.2-4l-0.5-0.5c-1.4,1.4-1.4,3.8,0,5.2l0,0
							l-2.2,5.5c4,4.1,10.4,4.1,14.4,0L-17.2,16.7z M-28.5,22.1l4.6-10.9c1.1,0.7,2.6,0.7,3.7,0l4.6,10.9
							C-19.4,25.4-24.9,25.4-28.5,22.1z M-23.9,29.8h0.7V26h-0.7V29.8z M-21.3,29.8h0.6V26h-0.6V29.8z M-19.3,18.9
							c0,1.6-1.2,3-2.9,3c-1.6,0-2.9-1.3-2.9-3h-0.6c0,2,1.5,3.6,3.5,3.6s3.5-1.6,3.5-3.6H-19.3z"/>
						<path d="M-20.5,29.9h-0.9v-4.1h0.9V29.9z M-21.2,29.6h0.4v-3.6h-0.4V29.6z M-23.1,29.9H-24v-4.1h0.9
							C-23.1,25.8-23.1,29.9-23.1,29.9z M-23.7,29.6h0.4v-3.6h-0.4V29.6z M-22.1,25.4c-2.8,0-5.3-1.1-7.2-3.2l-0.1-0.1l2.2-5.5
							c-1.3-1.5-1.3-3.9,0.1-5.3l0.1-0.1l0.6,0.7l-0.1,0.1c-0.9,1-1.1,2.6-0.3,3.7l2.4-5.9l0.1,0.1c0.5,0.5,1.2,0.8,2,0.8
							c0.8,0,1.4-0.3,2-0.8l0.1-0.1l2.4,5.9c0.8-1.1,0.7-2.7-0.3-3.7l-0.1-0.1l0.6-0.7l0.1,0.1c1.4,1.4,1.4,3.9,0.1,5.3l2.2,5.5
							l-0.1,0.1C-16.7,24.3-19.4,25.4-22.1,25.4z M-29.1,22.2c1.8,1.9,4.4,3,7,3s5.1-1,7-3l-2.2-5.5l0.1-0.1
							c1.3-1.3,1.3-3.6,0.1-4.9l-0.3,0.3c1,1.1,1,2.9,0.1,4.1l-0.3,0.2l-2.6-6c-0.6,0.5-1.3,0.8-2,0.8s-1.5-0.3-2-0.8l-2.4,6
							l-0.2-0.2c-0.9-1.2-0.9-3,0.1-4.1l-0.3-0.3c-1.2,1.4-1.2,3.6,0.1,4.9l0.1,0.1L-29.1,22.2z M-22.1,24.7c-2.3,0-4.7-0.9-6.4-2.6
							l-0.1-0.1V22l4.7-11l0.1,0.1c1,0.6,2.4,0.6,3.5,0l0.1-0.1l0.1,0.1l4.6,11l0,0C-17.4,23.8-19.7,24.7-22.1,24.7z M-28.3,22
							c1.6,1.6,3.9,2.4,6.1,2.4s4.5-0.9,6.2-2.4l-4.4-10.6c-1.1,0.6-2.4,0.6-3.5,0L-28.3,22z M-22.1,22.7c-2,0-3.7-1.6-3.7-3.8v-0.1
							h1v0.1c0,1.5,1.2,2.8,2.7,2.8c1.5,0,2.7-1.2,2.7-2.8v-0.1h0.9v0.1C-18.5,21-20.1,22.7-22.1,22.7z M-25.5,19
							c0.1,1.9,1.6,3.4,3.4,3.4c1.8,0,3.3-1.5,3.4-3.4h-0.4c-0.1,1.6-1.3,3-3,3s-2.9-1.3-3-3H-25.5z M-22.1,9.5L-22.1,9.5
							c-2.2,0-4-1.7-4.2-4c-1.4,0.1-2.6,1.3-2.8,2.8h1.5v0.9H-30V8.8c0-2.2,1.6-4.1,3.8-4.3c0.3-2.2,2.2-3.9,4.5-3.7
							c2.2,0.2,3.9,2.1,3.8,4.5S-19.9,9.5-22.1,9.5z M-26,5.1v0.1c0.1,2.1,1.8,3.9,3.9,3.9v0.1l0,0c2.1,0,3.9-1.7,4-3.9
							s-1.5-4.1-3.6-4.3c-2.1-0.1-4,1.4-4.3,3.6v0.1h-0.1c-2,0.2-3.7,1.9-3.7,4.1V9h1.9V8.6h-1.5V8.5c0.2-1.7,1.5-3.1,3.2-3.3
							L-26,5.1z M-22.1,8.8L-22.1,8.8c-1.9,0-3.5-1.5-3.5-3.5V5.2h0.1c1.4-0.2,2.8-1.1,3.3-2.4l0.1-0.3l0.1,0.3
							c0.6,1.4,1.8,2.4,3.4,2.6h0.1v0.1C-18.8,7.4-20.3,8.8-22.1,8.8z M-25.3,5.4c0.1,1.7,1.5,3.1,3.2,3.1h0.1c1.6,0,3.1-1.2,3.3-3
							c-1.5-0.2-2.8-1.1-3.4-2.4C-22.8,4.4-24,5.2-25.3,5.4z M-18.6,4.9h-0.2c-1.6-0.3-2.9-1.5-3-3.3V1.5h0.2c1.6,0.2,2.9,1.5,3,3.2
							V4.9z M-21.5,1.9c0.2,1.4,1.2,2.6,2.7,2.8C-19.1,3.2-20.2,2.1-21.5,1.9z M-25.6,4.7V4.5c0.2-1.6,1.5-2.9,3.1-3.1h0.2v0.2
							c-0.2,1.6-1.5,2.9-3.1,3.1H-25.6z M-22.6,1.9C-24,2.1-25,3.1-25.3,4.4C-24,4.2-23,3.2-22.6,1.9z"/>
					</g>
				</g>
			</g>
		</g>
	</g>
</g>
</svg>
